Coordinates
version=1
nRows=16
nColumns=40
inDegrees=yes

Units are S.I. units (second, meters, Newtons, ...)
Angles are in degrees.

endheader
time	pelvis_tilt	pelvis_list	pelvis_rotation	pelvis_tx	pelvis_ty	pelvis_tz	hip_flexion_r	hip_adduction_r	hip_rotation_r	knee_angle_r	knee_angle_r_beta	ankle_angle_r	subtalar_angle_r	mtp_angle_r	hip_flexion_l	hip_adduction_l	hip_rotation_l	knee_angle_l	knee_angle_l_beta	ankle_angle_l	subtalar_angle_l	mtp_angle_l	lumbar_extension	lumbar_bending	lumbar_rotation	arm_flex_r	arm_add_r	arm_rot_r	elbow_flex_r	pro_sup_r	wrist_flex_r	wrist_dev_r	arm_flex_l	arm_add_l	arm_rot_l	elbow_flex_l	pro_sup_l	wrist_flex_l	wrist_dev_l
      1.26000000	     -1.40779063	      2.61855471	      3.33309861	     -0.24275530	      0.95600904	     -1.06290390	     26.15723629	    -12.56308038	    -19.57897366	    -29.94742485	     -0.52268117	      3.03469468	     -8.48558895	     14.64734218	     -1.37567650	     -5.51870118	      7.56652642	    -11.15380815	     -0.19467068	      6.50288849	      2.35483983	     -5.92824578	     -4.63800026	     -3.57553817	     -3.28738330	     -1.13689628	     -9.56379899	    -21.81597040	     21.14240298	     89.95437384	      0.00000000	      0.00000000	      7.02048450	     13.99485577	      4.04834855	     27.06231747	     89.95437384	      0.00000000	      0.00000000
      1.27000000	     -0.87488065	      2.33663518	      3.59969255	     -0.23414592	      0.95617349	     -1.06294265	     25.56559593	    -12.13796716	    -20.32146476	    -27.41719032	     -0.47852024	      3.12108891	     -7.23627168	     14.33605819	     -2.63671732	     -5.05323855	      7.97423794	    -10.92992254	     -0.19076314	      6.59052104	      1.65184077	     -6.73080882	     -5.26146900	     -3.19119795	     -3.55729266	     -1.18830142	     -9.52745074	    -22.45830343	     20.92375367	     89.95437384	      0.00000000	      0.00000000	      7.52389285	     14.10272274	      3.56744925	     27.85718477	     89.95437384	      0.00000000	      0.00000000
      1.28000000	     -1.13270061	      2.47772644	      3.73694438	     -0.22635121	      0.95487488	     -1.06293617	     26.17160958	    -12.08743471	    -20.23533326	    -25.24117562	     -0.44054162	      3.03119267	     -6.31719109	     14.15173036	     -2.90407280	     -5.16879330	      8.02632262	    -10.92733186	     -0.19071792	      6.77450420	      1.32537255	     -6.96579042	     -5.07438081	     -3.32751735	     -3.70935819	     -1.37747239	     -9.51357412	    -22.44240905	     20.79580739	     89.95437384	      0.00000000	      0.00000000	      7.94886535	     14.21540007	      3.33797338	     28.63930027	     89.95437384	      0.00000000	      0.00000000
      1.29000000	     -0.72234437	      2.20105086	      4.03478636	     -0.21765458	      0.95467605	     -1.06288056	     25.67597553	    -11.67583681	    -20.97469805	    -22.79449664	     -0.39783902	      3.07410925	     -4.73116516	     13.47479910	     -3.98555924	     -4.65779288	      8.52618797	    -10.78448753	     -0.18822482	      6.84284841	      0.31988112	     -8.02711343	     -5.56290216	     -2.94059279	     -3.97804019	     -1.49258493	     -9.50184345	    -22.93265093	     20.63278855	     89.95437384	      0.00000000	      0.00000000	      8.43046243	     14.25879809	      3.11850913	     29.32641583	     89.95437384	      0.00000000	      0.00000000
      1.30000000	     -0.73835735	      2.02725014	      4.26770713	     -0.20933171	      0.95361879	     -1.06262961	     25.75935291	    -11.35551253	    -21.46907865	    -20.49332146	     -0.35767593	      2.12879139	     -3.19908195	      8.10142436	     -4.41499908	     -4.22768317	      9.38238841	    -10.91666372	     -0.19053173	      5.71302683	     -0.90263426	    -14.07042369	     -5.57425630	     -2.71273647	     -4.19968004	     -1.66579915	     -9.51814186	    -22.99528250	     20.52335420	     89.95437384	      0.00000000	      0.00000000	      8.80361463	     14.29128386	      3.00813612	     30.02568903	     89.95437384	      0.00000000	      0.00000000
      1.31000000	     -1.03474503	      2.16540508	      4.47570251	     -0.20126249	      0.95216321	     -1.06255902	     26.29162446	    -11.34591102	    -21.45694872	    -18.52441336	     -0.32331201	      2.11407570	     -1.96373940	      8.06240247	     -4.66400264	     -4.33331451	      9.25023482	    -10.90394944	     -0.19030982	      5.90505373	     -1.00611845	    -14.10009240	     -5.30098195	     -2.84089001	     -4.47247779	     -1.78277146	     -9.49226076	    -23.11818145	     20.31396475	     89.95437384	      0.00000000	      0.00000000	      9.09752156	     14.38340045	      2.88661953	     30.68295019	     89.95437384	      0.00000000	      0.00000000
      1.32000000	     -1.11624104	      2.14353872	      4.71614158	     -0.19292636	      0.95104146	     -1.06248027	     26.45951572	    -11.22217476	    -21.89016090	    -16.55737091	     -0.28898064	      1.94357729	     -0.16809008	      7.98631274	     -5.15598290	     -4.22095752	      9.27812990	    -10.88733027	     -0.19001976	      6.07612854	     -1.15886717	    -14.20323172	     -5.25530534	     -2.74726846	     -4.74023575	     -1.85578885	     -9.46566993	    -23.48179553	     20.08275137	     89.95437384	      0.00000000	      0.00000000	      9.39706134	     14.39202046	      2.83068368	     31.30034670	     89.95437384	      0.00000000	      0.00000000
      1.33000000	     -0.79405423	      1.98036553	      5.16142205	     -0.18382163	      0.95053593	     -1.06256695	     26.10211793	    -11.20089245	    -23.46446896	    -14.98323992	     -0.26150687	      1.99500684	      3.03616654	      7.16535476	     -6.14346250	     -3.81068411	      9.61290158	    -10.80169026	     -0.18852506	      6.14345289	     -2.10419942	    -14.58672192	     -5.61301472	     -2.45478964	     -5.08812195	     -2.01468732	     -9.45700529	    -24.04569112	     19.91693074	     89.95437384	      0.00000000	      0.00000000	      9.77398946	     14.32763058	      2.75435579	     31.77247176	     89.95437384	      0.00000000	      0.00000000
      1.34000000	     -1.10958362	      2.09908996	      5.34206975	     -0.17550613	      0.94898258	     -1.06217545	     26.55162850	    -11.16049920	    -23.56325861	    -13.36898906	     -0.23333288	      1.60874244	      4.15731440	      7.09981300	     -6.34753321	     -3.86584983	      9.54568380	    -10.86825397	     -0.18968682	      6.34952595	     -2.25963582	    -14.66992955	     -5.31882535	     -2.56483988	     -5.31734460	     -2.12332170	     -9.42044530	    -24.21145052	     19.71830153	     89.95437384	      0.00000000	      0.00000000	      9.97784592	     14.34286505	      2.80781385	     32.29811674	     89.95437384	      0.00000000	      0.00000000
      1.35000000	     -1.26964929	      2.15867977	      5.61570288	     -0.16687195	      0.94770197	     -1.06188494	     26.78907296	    -11.15123914	    -23.85566108	    -12.07137896	     -0.21068531	      1.23210282	      5.29422784	      6.98804490	     -6.69332896	     -3.78742657	      9.50614839	    -11.02533968	     -0.19242848	      6.55753462	     -2.51649744	    -14.79815603	     -5.16589155	     -2.58387756	     -5.61463005	     -2.23257671	     -9.39571710	    -24.49459144	     19.50612099	     89.95437384	      0.00000000	      0.00000000	     10.18529532	     14.30080708	      2.90896664	     32.68489645	     89.95437384	      0.00000000	      0.00000000
      1.36000000	     -1.04650910	      1.91255387	      6.05196626	     -0.15748354	      0.94683954	     -1.06148786	     26.48820291	    -10.99176996	    -25.35072618	    -11.03723011	     -0.19263601	     -0.53823374	      7.22835662	     -3.35096139	     -7.38160463	     -3.16587269	     10.04724816	    -11.30856201	     -0.19737164	      6.45159267	     -3.76790710	    -16.28024924	     -5.35840956	     -2.22244117	     -5.99430392	     -2.34544468	     -9.34088807	    -25.20128935	     19.30234184	     89.95437384	      0.00000000	      0.00000000	     10.33731316	     14.22839877	      2.93412683	     33.14745359	     89.95437384	      0.00000000	      0.00000000
      1.37000000	     -1.18358966	      1.91609739	      6.39200205	     -0.14877085	      0.94549820	     -1.06106467	     26.84355407	    -11.02099328	    -25.61436578	    -10.80735953	     -0.18862401	     -0.55060873	      7.53852230	     -3.33858485	     -7.69376660	     -2.98325748	      9.83932664	    -11.55959473	     -0.20175299	      6.67557926	     -3.88371959	    -16.24799821	     -5.24430027	     -2.17934320	     -6.33400458	     -2.39007340	     -9.31877529	    -25.44414533	     19.01073430	     89.95437384	      0.00000000	      0.00000000	     10.47249517	     14.20312989	      2.95176150	     33.55067607	     89.95437384	      0.00000000	      0.00000000
      1.38000000	     -1.32268109	      2.01618217	      6.56938152	     -0.13942624	      0.94409729	     -1.06041669	     27.27508514	    -11.11900820	    -25.51368152	    -11.05341456	     -0.19291848	     -0.53553004	      7.27676790	     -3.28499348	     -8.01801449	     -2.91751203	      9.83590197	    -11.89438483	     -0.20759618	      6.67066129	     -3.81609450	    -16.02423437	     -5.02284284	     -2.24755300	     -6.51437216	     -2.73256549	     -9.31922935	    -25.43998731	     19.12574366	     89.95437384	      0.00000000	      0.00000000	     10.52232196	     14.16360529	      2.96665744	     33.81001851	     89.95437384	      0.00000000	      0.00000000
      1.39000000	     -1.27290631	      1.93700601	      7.06842579	     -0.12990460	      0.94310324	     -1.05998119	     27.48326936	    -11.26940847	    -26.25306453	    -11.92221696	     -0.20808194	     -0.59580767	      6.62916328	     -3.21351733	     -8.59327475	     -2.54959409	      9.44526541	    -12.07224950	     -0.21070050	      6.87024768	     -4.25601377	    -16.00463992	     -5.01960824	     -2.10001913	     -7.01328784	     -2.78088331	     -9.23495759	    -26.13533700	     18.86084865	     89.95437384	      0.00000000	      0.00000000	     10.49973287	     14.07588696	      3.12325682	     34.14002346	     89.95437384	      0.00000000	      0.00000000
      1.40000000	     -1.29609262	      1.88481671	      7.33177793	     -0.12019509	      0.94195846	     -1.05920899	     27.72669115	    -11.28792121	    -26.26842109	    -12.78017870	     -0.22305620	     -0.73514683	      5.99677939	     -3.12925934	     -9.07332677	     -2.25881205	      9.32839115	    -12.32857526	     -0.21517423	      7.06503777	     -4.33078241	    -15.85539608	     -4.89891787	     -1.99092876	     -7.24409628	     -2.98467195	     -9.24771454	    -26.26937419	     18.73298619	     89.95437384	      0.00000000	      0.00000000	     10.48330045	     14.00935520	      3.07463800	     34.31731399	     89.95437384	      0.00000000	      0.00000000
      1.41000000	     -1.22582984	      1.78614988	      7.67394028	     -0.11022877	      0.94100781	     -1.05837699	     27.79694438	    -11.27593301	    -26.31654340	    -13.85017855	     -0.24173122	     -0.67066263	      4.99547699	     -3.04692673	     -9.61851712	     -1.85749546	      9.09836117	    -12.64041135	     -0.22061680	      7.17795967	     -4.45396235	    -15.69104661	     -4.86246673	     -1.82182333	     -7.55592488	     -3.21734256	     -9.22107291	    -26.51459606	     18.65631536	     89.95437384	      0.00000000	      0.00000000	     10.38581037	     13.90899678	      3.15738869	     34.46531065	     89.95437384	      0.00000000	      0.00000000
